<?xml version="1.0" encoding="UTF-8"?>
<svg xmlns="http://www.w3.org/2000/svg" version="1.1" viewBox="0 0 2000 2000">
  <!-- Generator: Adobe Illustrator 30.3.0, SVG Export Plug-In . SVG Version: 2.1.3 Build 182)  -->
  <defs>
    <style>
      .st0, .st1 {
        fill: #f28b05;
      }

      .st1 {
        display: none;
      }
    </style>
  </defs>
  <g id="Layer_1">
    <g>
      <path class="st0" d="M285.68,1797.25v-78.98h-32.25v-52.93h15.3c15.3,0,24.4-9.1,24.4-23.98v-33.91h57.89v53.76h42.59v57.06h-42.59v68.64c0,19.85,10.34,28.95,27.71,28.95,4.96,0,10.75-.83,14.89-2.89v59.55c-6.2,2.48-17.37,5.38-32.25,5.38-45.07,0-75.67-29.77-75.67-80.63l-.02-.02Z"/>
      <path class="st0" d="M426.69,1602.07c0-19.85,15.71-35.15,36.39-35.15s35.98,15.3,35.98,35.15-15.71,35.15-35.98,35.15-36.39-15.71-36.39-35.15ZM430.41,1872.09v-210.89h65.33v210.89h-65.33,0Z"/>
      <path class="st0" d="M540.4,1872.09v-210.89h48.38l9.51,20.68h2.07c5.79-7.44,26.88-26.46,59.13-26.46,50.04,0,84.36,35.98,84.36,90.97v125.71h-65.34v-117.44c0-21.92-15.3-38.87-36.39-38.87s-36.39,16.95-36.39,38.87v117.44h-65.33,0Z"/>
      <path class="st0" d="M910.91,1661.2h66.99l-83.12,215.03c-19.85,50.45-43.83,72.37-78.57,72.37-12.41,0-22.74-2.89-29.36-4.96v-56.65c4.96,2.07,9.1,2.89,16.13,2.89,19.85,0,28.53-7.03,34.32-22.33l-82.29-206.34h70.71l43.83,129.43,41.35-129.43h0Z"/>
      <path class="st0" d="M998.99,1946.53v-285.32h48.38l9.51,20.68h2.07c8.27-9.92,30.19-26.46,61.2-26.46,50.86,0,96.76,46.73,96.76,111.23s-45.9,111.24-96.76,111.24c-29.36,0-48.79-15.3-53.76-22.74h-2.07v91.39h-65.34v-.02ZM1151.57,1766.65c0-30.6-19.85-52.1-43.42-52.1s-43.83,21.5-43.83,52.1,20.26,52.1,43.83,52.1,43.42-21.5,43.42-52.1Z"/>
      <path class="st0" d="M1242.55,1766.65c0-60.37,49.62-111.23,110.82-111.23s110.82,50.86,110.82,111.23-50.04,111.24-110.82,111.24-110.82-50.86-110.82-111.24ZM1398.85,1766.65c0-30.19-19.85-52.1-45.49-52.1s-45.49,21.92-45.49,52.1,19.43,52.1,45.49,52.1,45.49-21.92,45.49-52.1Z"/>
      <path class="st0" d="M1486.52,1805.93l62.44-2.89c1.65,14.47,12.41,24.4,28.12,24.4s22.74-7.44,22.74-15.71c0-33.08-108.75-20.68-108.75-92.63,0-35.15,29.36-63.68,84.77-63.68,51.69,0,83.53,30.6,86.84,69.88l-62.44,2.48c-2.07-12.82-9.1-21.92-23.98-21.92-13.23,0-19.85,6.62-19.85,14.06,0,31.43,108.75,15.3,108.75,90.15,0,38.87-29.77,67.82-88.08,67.82-55,0-87.67-31.43-90.56-71.95h0Z"/>
    </g>
    <path class="st1" d="M1713.64,1047.69l-253.72-252.42c-7.17-7.13-19.37-3.86-22.01,5.9l-43.32,160.23c-1.22,4.52-4.74,8.07-9.25,9.33l-226.49,63.24s-.09.02-.13.03c-.17.04-.34.08-.51.12-.15.04-.3.07-.45.1-.18.03-.35.06-.53.09-.15.03-.31.04-.46.06-.18.02-.35.04-.53.05-.18.02-.36.02-.54.02-.14.01-.27.02-.41.02-.36,0-.72-.02-1.09-.05-.07,0-.15-.02-.22-.02-.29-.02-.57-.06-.86-.11-.08-.01-.17-.02-.25-.04-.33-.06-.66-.13-.99-.22h-.03c-.41-.11-.82-.24-1.22-.39-.13-.05-.26-.12-.39-.17-.25-.11-.51-.21-.75-.33-.18-.09-.36-.19-.54-.29-.18-.1-.36-.19-.54-.3-.2-.12-.38-.24-.57-.37-.16-.1-.31-.21-.46-.32-.19-.14-.37-.28-.55-.43-.07-.06-.15-.11-.23-.18l-160.13-138.23c-3.17-2.74-7.45-3.8-11.53-2.88l-148.84,33.81c-10.12,2.3-13.73,14.85-6.39,22.18l276.23,275.44c3.32,3.31,8.16,4.61,12.69,3.4l600.31-159.71c7.82-2.08,10.44-11.86,4.7-17.57Z"/>
    <path class="st1" d="M1278.69,608.46l-98.69,371.41c-2.62,9.85,6.46,18.82,16.28,16.08l167.41-46.75c4.48-1.25,7.96-4.77,9.18-9.25l51.26-189.62h0l47.09-179.23c2.56-9.76-6.35-18.66-16.11-16.09l-167.06,44.1c-4.58,1.21-8.16,4.78-9.37,9.36Z"/>
    <path class="st1" d="M1106.28,1259.99l-41.91,159.53c-2.57,9.79,6.4,18.71,16.18,16.07l596.8-160.97c4.56-1.23,8.11-4.81,9.31-9.37l41.29-157.17c2.57-9.77-6.37-18.68-16.13-16.08l-596.18,158.61c-4.58,1.22-8.15,4.8-9.36,9.39Z"/>
    <path class="st1" d="M888.67,478.02c4.69-1.19,9.65.26,12.96,3.79l153.15,163.29c.38.4.72.83,1.05,1.27.08.1.15.21.22.31.23.33.45.67.65,1.03.07.11.14.23.2.35.2.39.39.8.56,1.22.03.07.06.13.09.2.17.44.32.89.44,1.36.01.03.02.07.02.11.04.14.06.27.09.41.09.37.16.75.21,1.13.02.16.03.31.05.47.04.39.06.78.06,1.16v.4c-.02,1.06-.17,2.1-.43,3.1-.01.04-.03.13-.03.13l-55.7,203.87c-1.34,4.9.26,10.13,4.1,13.45l125.6,108.43c7.37,6.36,18.85,2.81,21.35-6.59l99.74-375.4c1.21-4.54-.1-9.39-3.42-12.71l-435.84-435.18c-7.2-7.18-19.47-3.86-22.05,5.98l-90.89,345.95c-2.55,9.71,6.26,18.59,15.99,16.12l171.84-43.65Z"/>
    <path class="st1" d="M303.6,1244.55c-1.17,4.44.06,9.18,3.25,12.49l116.55,121.06c7.13,7.41,19.62,4.16,22.24-5.79l154.71-588.87c1.15-4.39-.03-9.06-3.14-12.37l-119.99-127.77c-5.32-5.67-14.8-3.26-16.77,4.26l-156.85,597Z"/>
    <path class="st1" d="M832.42,134.68l436.02,435.36c3.32,3.31,8.14,4.61,12.67,3.42l166.31-43.9c9.8-2.59,13.13-14.82,6-22.02h0S1013.49,72.44,1013.49,72.44c-3.33-3.29-8.15-4.57-12.68-3.36l-162.49,43.55c-9.8,2.63-13.08,14.88-5.9,22.05Z"/>
    <path class="st1" d="M679.89,558.47l-175.42,46.67c-9.64,2.56-13.04,14.49-6.22,21.75l113.9,121.28c3.32,3.53,8.3,4.96,12.98,3.72l373.76-99.11c9.64-2.56,13.06-14.48,6.23-21.75l-112.21-119.64c-3.28-3.5-8.21-4.94-12.85-3.76l-200.18,50.84h0Z"/>
    <path class="st1" d="M888.96,1289.8s.13.12.13.12l122.35,122.95c9.53,9.57,25.85,5.18,29.28-7.89l39.91-151.91c1.19-4.54-.12-9.37-3.44-12.68l-277.27-276.48c-7.24-7.22-19.58-3.8-22.08,6.11l-41.55,164.93c-1.16,4.6.25,9.48,3.68,12.75l148.86,141.98s.08.08.12.12Z"/>
    <path class="st1" d="M710.49,1156.29c-3.46-3.31-4.88-8.22-3.71-12.86l56.69-225.04c.02-.1.05-.19.08-.29.04-.14.08-.27.12-.41.08-.27.18-.54.28-.81.05-.12.09-.24.14-.36.13-.3.26-.59.41-.88.06-.13.13-.26.2-.38.13-.24.27-.48.42-.71.06-.09.12-.19.18-.28.21-.31.44-.62.67-.91.06-.08.13-.15.19-.23.22-.26.44-.52.68-.76.03-.04.06-.08.1-.12.02-.01.03-.02.05-.04.28-.28.57-.54.87-.79.08-.07.17-.13.25-.2.23-.19.47-.36.71-.53.1-.07.19-.14.29-.2.3-.2.6-.38.92-.55.12-.07.24-.13.37-.19.22-.11.44-.21.67-.31.13-.06.27-.12.41-.17.3-.12.62-.23.94-.33.12-.04.23-.07.35-.1.21-.05.41-.11.62-.16l193.22-43.89c4.75-1.08,8.51-4.68,9.79-9.38l43.81-160.33c2.68-9.8-6.27-18.81-16.09-16.21l-367.51,97.46c-4.59,1.22-8.17,4.8-9.37,9.39l-156.11,594.18c-2.59,9.85,6.51,18.79,16.32,16.03l343.95-96.84c9.83-2.77,12.91-15.17,5.52-22.22l-126.43-120.59Z"/>
  </g>
  <g id="Layer_2">
    <path class="st0" d="M882.83,931.57l81.98-18.62c7.04-1.6,14.42.24,19.89,4.96l148.83,128.48c.29.25.57.48.86.7.38.31.76.6,1.16.89.24.18.68.5,1.26.88.42.28.83.54,1.27.81.42.25.83.48,1.25.71.43.24.84.46,1.25.66.5.25,1.07.5,1.63.74l-.06-.03.48.21c.28.12.56.24.84.34l.12.04c1,.38,2.04.71,3.08.99l2.54.68h.66c.09.01.18.03.26.04.69.11,1.36.19,2.02.25.23.02.46.04.69.06.85.06,1.65.09,2.44.09.38,0,.74,0,1.1-.03.39,0,.9-.03,1.47-.08.34-.03.68-.06,1.02-.1l.32-.04c.38-.04.9-.11,1.51-.22l.69-.12.31-.06c.42-.08.83-.17,1.23-.27l.3-.07c.29-.07.58-.14.83-.21l226.66-63.29c11.26-3.15,20.14-12.1,23.18-23.38l30.03-111.08c4.55-16.85,25.61-22.49,37.98-10.18l177.84,176.93c12.44,12.37,6.77,33.57-10.19,38.08l-529.64,140.91c-7.82,2.08-16.16-.15-21.9-5.87l-226.21-225.57c-12.68-12.64-6.44-34.3,11.02-38.27Z"/>
    <path class="st0" d="M1309.78,614.06l101.44-26.78c16.84-4.44,32.21,10.91,27.79,27.76l-34.19,130.14-46.86,173.32c-2.09,7.74-8.11,13.81-15.83,15.96l-101.43,28.32c-16.94,4.73-32.6-10.74-28.08-27.73l81-304.85c2.1-7.89,8.27-14.06,16.17-16.14Z"/>
    <path class="st0" d="M1137.4,1265.52l530.47-141.12c16.85-4.48,32.26,10.89,27.83,27.75l-24.03,91.47c-2.07,7.88-8.2,14.05-16.07,16.17l-531.02,143.23c-16.86,4.55-32.35-10.83-27.91-27.72l24.58-93.57c2.08-7.91,8.24-14.09,16.14-16.19Z"/>
    <path class="st0" d="M1033.54,872.11c-6.63-5.72-9.38-14.75-7.07-23.2l50.9-186.3.07-.29c.61-2.44.94-4.94.99-7.43v-.77c0-1.07-.05-2.14-.16-3.21,0,0-.08-.74-.11-.97-.13-.97-.29-1.9-.5-2.81-.01-.06-.02-.11-.04-.17-.09-.45-.2-.9-.32-1.35-.3-1.11-.65-2.21-1.09-3.34l-.15-.38s-.21-.49-.24-.55c-.33-.79-.71-1.59-1.11-2.38-.23-.45-.49-.92-.77-1.4-.43-.75-.9-1.48-1.42-2.23-.21-.3-.47-.68-.8-1.11-.54-.72-1.35-1.75-2.38-2.84l-153.12-163.25c-6.27-6.68-15.12-10.52-24.28-10.52-2.76,0-5.51.34-8.19,1.02l-123.24,31.3c-16.79,4.26-31.98-11.06-27.58-27.81l65.08-247.7c4.46-16.97,25.64-22.7,38.05-10.31l387.38,386.8c5.74,5.73,7.99,14.09,5.91,21.92l-83.24,313.29c-4.31,16.23-24.12,22.34-36.83,11.37l-75.74-65.39Z"/>
    <path class="st0" d="M327.16,1233.58l137.55-523.55c4.54-17.28,26.33-22.81,38.56-9.79l68.17,72.59c5.36,5.71,7.41,13.77,5.42,21.34l-137.18,522.15c-4.51,17.16-26.06,22.77-38.36,9.99l-68.54-71.19c-5.5-5.71-7.63-13.88-5.61-21.54Z"/>
    <path class="st0" d="M892.99,118.68l96.62-25.9c7.8-2.09,16.13.11,21.87,5.79l391,386.7c12.51,12.37,6.83,33.65-10.18,38.14l-99.86,26.36c-7.82,2.06-16.14-.18-21.86-5.89l-387.75-387.17c-12.39-12.37-6.73-33.51,10.18-38.04Z"/>
    <path class="st0" d="M546.71,649.27c-11.78-12.54-5.9-33.11,10.73-37.53l128.3-34.13,182.35-46.31c8.02-2.04,16.52.45,22.18,6.48l66.42,70.82c11.77,12.55,5.87,33.12-10.76,37.52l-308.88,81.9c-8.08,2.14-16.68-.32-22.4-6.41l-67.95-72.35Z"/>
    <path class="st0" d="M902.97,1275.52l-136.72-130.39c-5.93-5.65-8.36-14.06-6.35-22l24.63-97.78c4.31-17.1,25.61-23,38.1-10.54l228.41,227.76c5.73,5.71,7.99,14.05,5.94,21.87l-24.38,92.8c-4.47,17-25.7,22.72-38.1,10.26l-91.52-91.97Z"/>
    <path class="st0" d="M658.37,791.25l301.26-79.89c16.94-4.49,32.37,11.06,27.76,27.96l-25.6,93.71c-2.21,8.1-8.71,14.32-16.89,16.18l-176.11,40c-.28.07-.56.14-.84.21h-.05c-.54.15-1.06.3-1.56.46-.71.22-1.37.46-2.01.71-.46.18-.92.37-1.39.57-.42.18-.82.37-1.22.56-.46.22-.91.45-1.34.69-.72.39-1.42.81-2.11,1.26-.43.28-.78.52-1.03.71-.34.24-.81.58-1.35,1.01l-.76.37-2.39,2.41c-.25.26-.5.52-.74.79-.47.51-.84.94-1.09,1.24l-.38.45s-.2.26-.26.33c-.53.68-1.04,1.37-1.5,2.05,0,0-.29.43-.39.6-.38.59-.76,1.21-1.11,1.85-.24.42-.46.85-.67,1.27-.36.71-.63,1.33-.84,1.81l-.09.21c-.09.22-.18.44-.26.66l-.05.12-.13.35c-.16.44-.43,1.17-.7,2.08l-.1.33c-.1.32-.23.79-.37,1.37l-56.64,224.84c-2.92,11.59.63,23.93,9.28,32.2l88.93,84.82c12.74,12.15,7.42,33.56-9.53,38.33l-244.32,68.79c-16.92,4.76-32.61-10.66-28.15-27.66l138.61-527.58c2.08-7.91,8.25-14.1,16.16-16.2Z"/>
  </g>
</svg>