<?xml version="1.0" encoding="UTF-8"?>
<svg id="Layer_1" xmlns="http://www.w3.org/2000/svg" version="1.1" viewBox="0 0 2000 2000">
  <!-- Generator: Adobe Illustrator 30.3.0, SVG Export Plug-In . SVG Version: 2.1.3 Build 182)  -->
  <defs>
    <style>
      .st0, .st1 {
        fill: #f28b05;
      }

      .st2, .st1 {
        display: none;
      }
    </style>
  </defs>
  <path class="st1" d="M1596.26,1041.34l-212.51-211.42c-6.01-5.97-16.22-3.23-18.44,4.94l-36.28,134.21c-1.02,3.79-3.97,6.76-7.75,7.81l-189.71,52.97s-.08.02-.11.03c-.14.03-.28.07-.43.1-.13.03-.25.06-.38.08-.15.03-.29.05-.44.08-.13.03-.26.03-.39.05-.15.02-.29.03-.44.04-.15.02-.3.02-.45.02-.12,0-.23.02-.34.02-.3,0-.6-.02-.91-.04-.06,0-.13-.02-.18-.02-.24-.02-.48-.05-.72-.09-.07,0-.14-.02-.21-.03-.28-.05-.55-.11-.83-.18h-.03c-.34-.09-.69-.2-1.02-.33-.11-.04-.22-.1-.33-.14-.21-.09-.43-.18-.63-.28-.15-.08-.3-.16-.45-.24-.15-.08-.3-.16-.45-.25-.17-.1-.32-.2-.48-.31-.13-.08-.26-.18-.39-.27-.16-.12-.31-.23-.46-.36-.06-.05-.13-.09-.19-.15l-134.12-115.78c-2.66-2.29-6.24-3.18-9.66-2.41l-124.67,28.32c-8.48,1.93-11.5,12.44-5.35,18.58l231.37,230.71c2.78,2.77,6.83,3.86,10.63,2.85l502.81-133.77c6.55-1.74,8.74-9.93,3.94-14.72h0v-.02Z"/>
  <path class="st1" d="M1231.95,673.45l-82.66,311.09c-2.19,8.25,5.41,15.76,13.64,13.47l140.22-39.16c3.75-1.05,6.67-4,7.69-7.75l42.93-158.82h0l39.44-150.12c2.14-8.17-5.32-15.63-13.49-13.48l-139.93,36.94c-3.84,1.01-6.83,4-7.85,7.84h.01Z"/>
  <path class="st1" d="M1087.54,1219.16l-35.1,133.62c-2.15,8.2,5.36,15.67,13.55,13.46l499.87-134.83c3.82-1.03,6.79-4.03,7.8-7.85l34.58-131.64c2.15-8.18-5.34-15.65-13.51-13.47l-499.35,132.85c-3.84,1.02-6.83,4.02-7.84,7.86h0Z"/>
  <path class="st1" d="M905.28,564.19c3.93-1,8.08.22,10.86,3.17l128.28,136.77c.32.34.6.7.88,1.06.07.08.13.18.18.26.19.28.38.56.54.86.06.09.12.19.17.29.17.33.33.67.47,1.02.03.06.05.11.08.17.14.37.27.75.37,1.14,0,.03.02.06.02.09.03.12.05.23.08.34.08.31.13.63.18.95.02.13.03.26.04.39.03.33.05.65.05.97v.34c-.02.89-.14,1.76-.36,2.6,0,.03-.03.11-.03.11l-46.65,170.76c-1.12,4.1.22,8.48,3.43,11.27l105.2,90.82c6.17,5.33,15.79,2.35,17.88-5.52l83.54-314.43c1.01-3.8-.08-7.86-2.86-10.65l-365.05-364.5c-6.03-6.01-16.31-3.23-18.47,5.01l-76.13,289.76c-2.14,8.13,5.24,15.57,13.39,13.5l143.93-36.56h-.02Z"/>
  <path class="st1" d="M415.23,1206.23c-.98,3.72.05,7.69,2.72,10.46l97.62,101.4c5.97,6.21,16.43,3.48,18.63-4.85l129.58-493.23c.96-3.68-.03-7.59-2.63-10.36l-100.5-107.02c-4.46-4.75-12.4-2.73-14.05,3.57l-131.38,500.04h0Z"/>
  <path class="st1" d="M858.16,276.62l365.21,364.65c2.78,2.77,6.82,3.86,10.61,2.86l139.3-36.77c8.21-2.17,11-12.41,5.03-18.44h0l-368.48-364.44c-2.79-2.76-6.83-3.83-10.62-2.81l-136.1,36.48c-8.21,2.2-10.96,12.46-4.94,18.47h-.01Z"/>
  <path class="st1" d="M730.4,631.58l-146.93,39.09c-8.07,2.14-10.92,12.14-5.21,18.22l95.4,101.58c2.78,2.96,6.95,4.15,10.87,3.12l313.06-83.01c8.07-2.14,10.94-12.13,5.22-18.22l-93.99-100.21c-2.75-2.93-6.88-4.14-10.76-3.15l-167.67,42.58h.01Z"/>
  <path class="st1" d="M905.52,1244.13l.11.1,102.48,102.98c7.98,8.02,21.65,4.34,24.52-6.61l33.43-127.24c1-3.8-.1-7.85-2.88-10.62l-232.24-231.58c-6.06-6.05-16.4-3.18-18.49,5.12l-34.8,138.14c-.97,3.85.21,7.94,3.08,10.68l124.68,118.92s.07.07.1.1h0Z"/>
  <path class="st1" d="M756.03,1132.31c-2.9-2.77-4.09-6.88-3.11-10.77l47.48-188.49c.02-.08.04-.16.07-.24.03-.12.07-.23.1-.34.07-.23.15-.45.23-.68.04-.1.08-.2.12-.3.11-.25.22-.49.34-.74.05-.11.11-.22.17-.32.11-.2.23-.4.35-.59.05-.08.1-.16.15-.23.18-.26.37-.52.56-.76.05-.07.11-.13.16-.19.18-.22.37-.44.57-.64.03-.03.05-.07.08-.1.02,0,.03-.02.04-.03.23-.23.48-.45.73-.66.07-.06.14-.11.21-.17.19-.16.39-.3.59-.44.08-.06.16-.12.24-.17.25-.17.5-.32.77-.46.1-.06.2-.11.31-.16.18-.09.37-.18.56-.26.11-.05.23-.1.34-.14.25-.1.52-.19.79-.28.1-.03.19-.06.29-.08.18-.04.34-.09.52-.13l161.84-36.76c3.98-.9,7.13-3.92,8.2-7.86l36.69-134.29c2.24-8.21-5.25-15.76-13.48-13.58l-307.82,81.63c-3.84,1.02-6.84,4.02-7.85,7.86l-130.76,497.68c-2.17,8.25,5.45,15.74,13.67,13.43l288.09-81.11c8.23-2.32,10.81-12.71,4.62-18.61l-105.9-101h0l.04-.02Z"/>
  <g id="Layer_2" class="st2">
    <path class="st0" d="M882.83,931.57l81.98-18.62c7.04-1.6,14.42.24,19.89,4.96l148.83,128.48c.29.25.57.48.86.7.38.31.76.6,1.16.89.24.18.68.5,1.26.88.42.28.83.54,1.27.81.42.25.83.48,1.25.71.43.24.84.46,1.25.66.5.25,1.07.5,1.63.74l-.06-.03.48.21c.28.12.56.24.84.34l.12.04c1,.38,2.04.71,3.08.99l2.54.68h.66c.09.01.18.03.26.04.69.11,1.36.19,2.02.25l.69.06c.85.06,1.65.09,2.44.09.38,0,.74,0,1.1-.03.39,0,.9-.03,1.47-.08.34-.03.68-.06,1.02-.1l.32-.04c.38-.04.9-.11,1.51-.22l.69-.12.31-.06c.42-.08.83-.17,1.23-.27l.3-.07c.29-.07.58-.14.83-.21l226.66-63.29c11.26-3.15,20.14-12.1,23.18-23.38l30.03-111.08c4.55-16.85,25.61-22.49,37.98-10.18l177.84,176.93c12.44,12.37,6.77,33.57-10.19,38.08l-529.64,140.91c-7.82,2.08-16.16-.15-21.9-5.87l-226.21-225.57c-12.68-12.64-6.44-34.3,11.02-38.27v.04h0Z"/>
    <path class="st0" d="M1309.78,614.06l101.44-26.78c16.84-4.44,32.21,10.91,27.79,27.76l-34.19,130.14-46.86,173.32c-2.09,7.74-8.11,13.81-15.83,15.96l-101.43,28.32c-16.94,4.73-32.6-10.74-28.08-27.73l81-304.85c2.1-7.89,8.27-14.06,16.17-16.14h-.01Z"/>
    <path class="st0" d="M1137.4,1265.52l530.47-141.12c16.85-4.48,32.26,10.89,27.83,27.75l-24.03,91.47c-2.07,7.88-8.2,14.05-16.07,16.17l-531.02,143.23c-16.86,4.55-32.35-10.83-27.91-27.72l24.58-93.57c2.08-7.91,8.24-14.09,16.14-16.19v-.02h.01Z"/>
    <path class="st0" d="M1033.54,872.11c-6.63-5.72-9.38-14.75-7.07-23.2l50.9-186.3.07-.29c.61-2.44.94-4.94.99-7.43v-.77c0-1.07-.05-2.14-.16-3.21,0,0-.08-.74-.11-.97-.13-.97-.29-1.9-.5-2.81-.01-.06-.02-.11-.04-.17-.09-.45-.2-.9-.32-1.35-.3-1.11-.65-2.21-1.09-3.34l-.15-.38s-.21-.49-.24-.55c-.33-.79-.71-1.59-1.11-2.38-.23-.45-.49-.92-.77-1.4-.43-.75-.9-1.48-1.42-2.23-.21-.3-.47-.68-.8-1.11-.54-.72-1.35-1.75-2.38-2.84l-153.12-163.25c-6.27-6.68-15.12-10.52-24.28-10.52-2.76,0-5.51.34-8.19,1.02l-123.24,31.3c-16.79,4.26-31.98-11.06-27.58-27.81l65.08-247.7c4.46-16.97,25.64-22.7,38.05-10.31l387.38,386.8c5.74,5.73,7.99,14.09,5.91,21.92l-83.24,313.29c-4.31,16.23-24.12,22.34-36.83,11.37l-75.74-65.39h0Z"/>
    <path class="st0" d="M327.16,1233.58l137.55-523.55c4.54-17.28,26.33-22.81,38.56-9.79l68.17,72.59c5.36,5.71,7.41,13.77,5.42,21.34l-137.18,522.15c-4.51,17.16-26.06,22.77-38.36,9.99l-68.54-71.19c-5.5-5.71-7.63-13.88-5.61-21.54h-.01Z"/>
    <path class="st0" d="M892.99,118.68l96.62-25.9c7.8-2.09,16.13.11,21.87,5.79l391,386.7c12.51,12.37,6.83,33.65-10.18,38.14l-99.86,26.36c-7.82,2.06-16.14-.18-21.86-5.89l-387.75-387.17c-12.39-12.37-6.73-33.51,10.18-38.04h-.02,0Z"/>
    <path class="st0" d="M546.71,649.27c-11.78-12.54-5.9-33.11,10.73-37.53l128.3-34.13,182.35-46.31c8.02-2.04,16.52.45,22.18,6.48l66.42,70.82c11.77,12.55,5.87,33.12-10.76,37.52l-308.88,81.9c-8.08,2.14-16.68-.32-22.4-6.41l-67.95-72.35h.01Z"/>
    <path class="st0" d="M902.97,1275.52l-136.72-130.39c-5.93-5.65-8.36-14.06-6.35-22l24.63-97.78c4.31-17.1,25.61-23,38.1-10.54l228.41,227.76c5.73,5.71,7.99,14.05,5.94,21.87l-24.38,92.8c-4.47,17-25.7,22.72-38.1,10.26l-91.52-91.97h-.01Z"/>
    <path class="st0" d="M658.37,791.25l301.26-79.89c16.94-4.49,32.37,11.06,27.76,27.96l-25.6,93.71c-2.21,8.1-8.71,14.32-16.89,16.18l-176.11,40c-.28.07-.56.14-.84.21h-.05c-.54.15-1.06.3-1.56.46-.71.22-1.37.46-2.01.71-.46.18-.92.37-1.39.57-.42.18-.82.37-1.22.56-.46.22-.91.45-1.34.69-.72.39-1.42.81-2.11,1.26-.43.28-.78.52-1.03.71-.34.24-.81.58-1.35,1.01l-.76.37-2.39,2.41c-.25.26-.5.52-.74.79-.47.51-.84.94-1.09,1.24l-.38.45s-.2.26-.26.33c-.53.68-1.04,1.37-1.5,2.05,0,0-.29.43-.39.6-.38.59-.76,1.21-1.11,1.85-.24.42-.46.85-.67,1.27-.36.71-.63,1.33-.84,1.81l-.09.21c-.09.22-.18.44-.26.66l-.05.12-.13.35c-.16.44-.43,1.17-.7,2.08l-.1.33c-.1.32-.23.79-.37,1.37l-56.64,224.84c-2.92,11.59.63,23.93,9.28,32.2l88.93,84.82c12.74,12.15,7.42,33.56-9.53,38.33l-244.32,68.79c-16.92,4.76-32.61-10.66-28.15-27.66l138.61-527.58c2.08-7.91,8.25-14.1,16.16-16.2l-.03.03h0Z"/>
  </g>
  <g>
    <path class="st0" d="M429.11,1422.01l86.1,90.33c8.15,8.55,20.36,11.88,31.72,8.66l229.56-65.07c23.44-6.64,31.03-36.08,13.73-53.23l-55-54.51c-7.97-7.9-11.19-19.41-8.48-30.3l45.13-181.16c2.82-11.31,11.59-20.18,22.87-23.11l138.89-36.13c11.54-3,20.44-12.2,23.05-23.84l27.17-121.21c2.28-10.17-.57-20.82-7.62-28.49l-75.83-82.56c-7.88-8.58-19.81-12.17-31.12-9.36l-299.23,74.38c-11.32,2.81-20.19,11.59-23.13,22.88l-125.57,482.75c-2.77,10.66.16,22,7.77,29.97h0Z"/>
    <path class="st0" d="M1547.73,1401.3l30.83-113.47c2.98-10.98-.12-22.71-8.14-30.78l-167.25-168.35c-17.27-17.38-46.87-9.55-53.29,14.09l-19.01,69.96c-2.91,10.72-11.21,19.15-21.88,22.23l-184.41,53.26c-10.37,3-21.55.53-29.7-6.55l-122.22-106.17c-8.49-7.37-20.24-9.72-30.91-6.18l-107.33,35.65c-10.24,3.4-18.07,11.77-20.78,22.21l-29.03,111.9c-2.84,10.96.35,22.61,8.4,30.59l218.08,216.28c8.05,7.99,19.75,11.08,30.7,8.13l483.51-130.42c10.92-2.95,19.46-11.47,22.43-22.38h0Z"/>
    <path class="st0" d="M968.52,445.85l-118.8,30.78c-11.14,2.89-19.86,11.57-22.79,22.7l-61.41,233.12c-6.17,23.44,15.07,44.9,38.56,38.97l80.44-20.29c11.21-2.83,23.06.64,30.98,9.06l124.95,132.94c7.62,8.11,10.45,19.6,7.47,30.32l-40.6,146.17c-3.34,12.04.67,24.92,10.25,32.94l92.44,77.29c8.09,6.77,19.01,9.08,29.15,6.19l124-35.4c10.87-3.1,19.28-11.74,22.09-22.69l75.28-293.15c2.81-10.95-.39-22.56-8.42-30.52l-353.2-350.24c-7.97-7.91-19.52-11.03-30.4-8.21v.02Z"/>
  </g>
</svg>