<?xml version="1.0" encoding="UTF-8"?>
<svg id="Layer_1" xmlns="http://www.w3.org/2000/svg" version="1.1" xmlns:xlink="http://www.w3.org/1999/xlink" viewBox="0 0 2000 2000">
  <!-- Generator: Adobe Illustrator 30.3.0, SVG Export Plug-In . SVG Version: 2.1.3 Build 182)  -->
  <defs>
    <style>
      .st0, .st1 {
        fill: #513470;
      }

      .st0, .st2, .st3, .st4, .st5, .st6, .st7 {
        display: none;
      }

      .st8 {
        fill: #fff;
      }

      .st9, .st5 {
        fill: #f28b05;
      }

      .st10 {
        fill: url(#linear-gradient4);
      }

      .st2 {
        fill: url(#linear-gradient2);
      }

      .st3 {
        fill: url(#linear-gradient1);
      }

      .st11 {
        fill: url(#linear-gradient5);
      }

      .st12 {
        fill: url(#linear-gradient3);
      }

      .st6 {
        fill: #7430f9;
      }

      .st7 {
        fill: url(#linear-gradient);
      }
    </style>
    <linearGradient id="linear-gradient" x1="714.76" y1="1457.06" x2="714.76" y2="728.08" gradientUnits="userSpaceOnUse">
      <stop offset="0" stop-color="#edc314"/>
      <stop offset="1" stop-color="#f28b05"/>
    </linearGradient>
    <linearGradient id="linear-gradient1" x1="243.9" y1="1233.94" x2="243.9" y2="504.96" gradientTransform="translate(1960.5 907.6) rotate(117.06)" xlink:href="#linear-gradient"/>
    <linearGradient id="linear-gradient2" x1="256.18" y1="1071.36" x2="256.18" y2="342.38" gradientTransform="translate(718.61 1776.4) rotate(-118.81)" xlink:href="#linear-gradient"/>
    <linearGradient id="linear-gradient3" x1="1207.07" y1="1415.91" x2="1240.71" y2="932.63" gradientTransform="translate(18.29 -16.03) rotate(.95)" xlink:href="#linear-gradient"/>
    <linearGradient id="linear-gradient4" x1="1007.79" y1="795.69" x2="1305.54" y2="422.62" gradientTransform="translate(18.29 -16.03) rotate(.95)" gradientUnits="userSpaceOnUse">
      <stop offset="0" stop-color="#edc314"/>
      <stop offset=".73" stop-color="#f28b05"/>
    </linearGradient>
    <linearGradient id="linear-gradient5" x1="719.37" y1="1460.1" x2="719.37" y2="716.32" gradientTransform="translate(18.29 -16.03) rotate(.95)" xlink:href="#linear-gradient"/>
  </defs>
  <path class="st5" d="M400.22,1669.17v-66.15h-27.01v-44.33h12.82c12.82,0,20.44-7.62,20.44-20.09v-28.4h48.49v45.03h35.67v47.79h-35.67v57.49c0,16.63,8.66,24.25,23.21,24.25,4.15,0,9-.7,12.47-2.42v49.88c-5.19,2.08-14.55,4.51-27.01,4.51-37.75,0-63.38-24.94-63.38-67.53l-.02-.02h-.01Z"/>
  <path class="st5" d="M518.33,1505.69c0-16.63,13.16-29.44,30.48-29.44s30.14,12.82,30.14,29.44-13.16,29.44-30.14,29.44-30.48-13.16-30.48-29.44ZM521.44,1731.85v-176.64h54.72v176.64h-54.72Z"/>
  <path class="st5" d="M613.57,1731.85v-176.64h40.52l7.97,17.32h1.73c4.85-6.23,22.51-22.16,49.53-22.16,41.91,0,70.66,30.14,70.66,76.2v105.29h-54.73v-98.37c0-18.36-12.82-32.56-30.48-32.56s-30.48,14.2-30.48,32.56v98.37h-54.72Z"/>
  <path class="st5" d="M923.9,1555.21h56.11l-69.62,180.11c-16.63,42.26-36.71,60.62-65.81,60.62-10.39,0-19.05-2.42-24.59-4.15v-47.45c4.15,1.73,7.62,2.42,13.51,2.42,16.63,0,23.9-5.89,28.75-18.7l-68.93-172.83h59.23l36.71,108.41,34.63-108.41h0v-.02h.01Z"/>
  <path class="st5" d="M997.68,1794.2v-238.98h40.52l7.97,17.32h1.73c6.93-8.31,25.29-22.16,51.26-22.16,42.6,0,81.05,39.14,81.05,93.17s-38.45,93.17-81.05,93.17c-24.59,0-40.87-12.82-45.03-19.05h-1.73v76.55h-54.73v-.02h.01ZM1125.48,1643.54c0-25.63-16.63-43.64-36.37-43.64s-36.71,18.01-36.71,43.64,16.97,43.64,36.71,43.64,36.37-18.01,36.37-43.64Z"/>
  <path class="st5" d="M1201.68,1643.54c0-50.57,41.56-93.17,92.82-93.17s92.82,42.6,92.82,93.17-41.91,93.17-92.82,93.17-92.82-42.6-92.82-93.17ZM1332.6,1643.54c0-25.29-16.63-43.64-38.1-43.64s-38.1,18.36-38.1,43.64,16.27,43.64,38.1,43.64,38.1-18.36,38.1-43.64Z"/>
  <path class="st5" d="M1406.03,1676.44l52.3-2.42c1.38,12.12,10.39,20.44,23.55,20.44s19.05-6.23,19.05-13.16c0-27.71-91.09-17.32-91.09-77.59,0-29.44,24.59-53.34,71-53.34,43.29,0,69.96,25.63,72.74,58.53l-52.3,2.08c-1.73-10.74-7.62-18.36-20.09-18.36-11.08,0-16.63,5.54-16.63,11.78,0,26.33,91.09,12.82,91.09,75.51,0,32.56-24.94,56.81-73.77,56.81-46.07,0-73.43-26.33-75.85-60.26h0v-.02h0Z"/>
  <path class="st5" d="M1596.26,1041.34l-212.51-211.42c-6.01-5.97-16.22-3.23-18.44,4.94l-36.28,134.21c-1.02,3.79-3.97,6.76-7.75,7.81l-189.71,52.97s-.08.02-.11.03c-.14.03-.28.07-.43.1-.13.03-.25.06-.38.08-.15.03-.29.05-.44.08-.13.03-.26.03-.39.05-.15.02-.29.03-.44.04-.15.02-.3.02-.45.02-.12,0-.23.02-.34.02-.3,0-.6-.02-.91-.04-.06,0-.13-.02-.18-.02-.24-.02-.48-.05-.72-.09-.07,0-.14-.02-.21-.03-.28-.05-.55-.11-.83-.18h-.03c-.34-.09-.69-.2-1.02-.33-.11-.04-.22-.1-.33-.14-.21-.09-.43-.18-.63-.28-.15-.08-.3-.16-.45-.24-.15-.08-.3-.16-.45-.25-.17-.1-.32-.2-.48-.31-.13-.08-.26-.18-.39-.27-.16-.12-.31-.23-.46-.36-.06-.05-.13-.09-.19-.15l-134.12-115.78c-2.66-2.29-6.24-3.18-9.66-2.41l-124.67,28.32c-8.48,1.93-11.5,12.44-5.35,18.58l231.37,230.71c2.78,2.77,6.83,3.86,10.63,2.85l502.81-133.77c6.55-1.74,8.74-9.93,3.94-14.72h0v-.02h0Z"/>
  <path class="st5" d="M1231.95,673.45l-82.66,311.09c-2.19,8.25,5.41,15.76,13.64,13.47l140.22-39.16c3.75-1.05,6.67-4,7.69-7.75l42.93-158.82h0l39.44-150.12c2.14-8.17-5.32-15.63-13.49-13.48l-139.93,36.94c-3.84,1.01-6.83,4-7.85,7.84h.01Z"/>
  <path class="st5" d="M1087.54,1219.16l-35.1,133.62c-2.15,8.2,5.36,15.67,13.55,13.46l499.87-134.83c3.82-1.03,6.79-4.03,7.8-7.85l34.58-131.64c2.15-8.18-5.34-15.65-13.51-13.47l-499.35,132.85c-3.84,1.02-6.83,4.02-7.84,7.86h0Z"/>
  <path class="st5" d="M905.28,564.19c3.93-1,8.08.22,10.86,3.17l128.28,136.77c.32.34.6.7.88,1.06.07.08.13.18.18.26.19.28.38.56.54.86.06.09.12.19.17.29.17.33.33.67.47,1.02.03.06.05.11.08.17.14.37.27.75.37,1.14,0,.03.02.06.02.09.03.12.05.23.08.34.08.31.13.63.18.95.02.13.03.26.04.39.03.33.05.65.05.97v.34c-.02.89-.14,1.76-.36,2.6,0,.03-.03.11-.03.11l-46.65,170.76c-1.12,4.1.22,8.48,3.43,11.27l105.2,90.82c6.17,5.33,15.79,2.35,17.88-5.52l83.54-314.43c1.01-3.8-.08-7.86-2.86-10.65l-365.05-364.5c-6.03-6.01-16.31-3.23-18.47,5.01l-76.13,289.76c-2.14,8.13,5.24,15.57,13.39,13.5l143.93-36.56h-.02Z"/>
  <path class="st5" d="M415.23,1206.23c-.98,3.72.05,7.69,2.72,10.46l97.62,101.4c5.97,6.21,16.43,3.48,18.63-4.85l129.58-493.23c.96-3.68-.03-7.59-2.63-10.36l-100.5-107.02c-4.46-4.75-12.4-2.73-14.05,3.57l-131.38,500.04h0Z"/>
  <path class="st5" d="M858.16,276.62l365.21,364.65c2.78,2.77,6.82,3.86,10.61,2.86l139.3-36.77c8.21-2.17,11-12.41,5.03-18.44h0l-368.48-364.44c-2.79-2.76-6.83-3.83-10.62-2.81l-136.1,36.48c-8.21,2.2-10.96,12.46-4.94,18.47h-.01Z"/>
  <path class="st5" d="M730.4,631.58l-146.93,39.09c-8.07,2.14-10.92,12.14-5.21,18.22l95.4,101.58c2.78,2.96,6.95,4.15,10.87,3.12l313.06-83.01c8.07-2.14,10.94-12.13,5.22-18.22l-93.99-100.21c-2.75-2.93-6.88-4.14-10.76-3.15l-167.67,42.58h.01Z"/>
  <path class="st5" d="M905.52,1244.13l.11.1,102.48,102.98c7.98,8.02,21.65,4.34,24.52-6.61l33.43-127.24c1-3.8-.1-7.85-2.88-10.62l-232.24-231.58c-6.06-6.05-16.4-3.18-18.49,5.12l-34.8,138.14c-.97,3.85.21,7.94,3.08,10.68l124.68,118.92s.07.07.1.1h0Z"/>
  <path class="st5" d="M756.03,1132.31c-2.9-2.77-4.09-6.88-3.11-10.77l47.48-188.49c.02-.08.04-.16.07-.24.03-.12.07-.23.1-.34.07-.23.15-.45.23-.68.04-.1.08-.2.12-.3.11-.25.22-.49.34-.74.05-.11.11-.22.17-.32.11-.2.23-.4.35-.59.05-.08.1-.16.15-.23.18-.26.37-.52.56-.76.05-.07.11-.13.16-.19.18-.22.37-.44.57-.64.03-.03.05-.07.08-.1.02,0,.03-.02.04-.03.23-.23.48-.45.73-.66.07-.06.14-.11.21-.17.19-.16.39-.3.59-.44.08-.06.16-.12.24-.17.25-.17.5-.32.77-.46.1-.06.2-.11.31-.16.18-.09.37-.18.56-.26.11-.05.23-.1.34-.14.25-.1.52-.19.79-.28.1-.03.19-.06.29-.08.18-.04.34-.09.52-.13l161.84-36.76c3.98-.9,7.13-3.92,8.2-7.86l36.69-134.29c2.24-8.21-5.25-15.76-13.48-13.58l-307.82,81.63c-3.84,1.02-6.84,4.02-7.85,7.86l-130.76,497.68c-2.17,8.25,5.45,15.74,13.67,13.43l288.09-81.11c8.23-2.32,10.81-12.71,4.62-18.61l-105.9-101h0l.04-.02h0Z"/>
  <g id="Layer_2" class="st4">
    <path class="st9" d="M882.83,931.57l81.98-18.62c7.04-1.6,14.42.24,19.89,4.96l148.83,128.48c.29.25.57.48.86.7.38.31.76.6,1.16.89.24.18.68.5,1.26.88.42.28.83.54,1.27.81.42.25.83.48,1.25.71.43.24.84.46,1.25.66.5.25,1.07.5,1.63.74l-.06-.03.48.21c.28.12.56.24.84.34l.12.04c1,.38,2.04.71,3.08.99l2.54.68h.66c.09.01.18.03.26.04.69.11,1.36.19,2.02.25l.69.06c.85.06,1.65.09,2.44.09.38,0,.74,0,1.1-.03.39,0,.9-.03,1.47-.08.34-.03.68-.06,1.02-.1l.32-.04c.38-.04.9-.11,1.51-.22l.69-.12.31-.06c.42-.08.83-.17,1.23-.27l.3-.07c.29-.07.58-.14.83-.21l226.66-63.29c11.26-3.15,20.14-12.1,23.18-23.38l30.03-111.08c4.55-16.85,25.61-22.49,37.98-10.18l177.84,176.93c12.44,12.37,6.77,33.57-10.19,38.08l-529.64,140.91c-7.82,2.08-16.16-.15-21.9-5.87l-226.21-225.57c-12.68-12.64-6.44-34.3,11.02-38.27v.04h0Z"/>
    <path class="st9" d="M1309.78,614.06l101.44-26.78c16.84-4.44,32.21,10.91,27.79,27.76l-34.19,130.14-46.86,173.32c-2.09,7.74-8.11,13.81-15.83,15.96l-101.43,28.32c-16.94,4.73-32.6-10.74-28.08-27.73l81-304.85c2.1-7.89,8.27-14.06,16.17-16.14h-.01Z"/>
    <path class="st9" d="M1137.4,1265.52l530.47-141.12c16.85-4.48,32.26,10.89,27.83,27.75l-24.03,91.47c-2.07,7.88-8.2,14.05-16.07,16.17l-531.02,143.23c-16.86,4.55-32.35-10.83-27.91-27.72l24.58-93.57c2.08-7.91,8.24-14.09,16.14-16.19v-.02h.01Z"/>
    <path class="st9" d="M1033.54,872.11c-6.63-5.72-9.38-14.75-7.07-23.2l50.9-186.3.07-.29c.61-2.44.94-4.94.99-7.43v-.77c0-1.07-.05-2.14-.16-3.21,0,0-.08-.74-.11-.97-.13-.97-.29-1.9-.5-2.81-.01-.06-.02-.11-.04-.17-.09-.45-.2-.9-.32-1.35-.3-1.11-.65-2.21-1.09-3.34l-.15-.38s-.21-.49-.24-.55c-.33-.79-.71-1.59-1.11-2.38-.23-.45-.49-.92-.77-1.4-.43-.75-.9-1.48-1.42-2.23-.21-.3-.47-.68-.8-1.11-.54-.72-1.35-1.75-2.38-2.84l-153.12-163.25c-6.27-6.68-15.12-10.52-24.28-10.52-2.76,0-5.51.34-8.19,1.02l-123.24,31.3c-16.79,4.26-31.98-11.06-27.58-27.81l65.08-247.7c4.46-16.97,25.64-22.7,38.05-10.31l387.38,386.8c5.74,5.73,7.99,14.09,5.91,21.92l-83.24,313.29c-4.31,16.23-24.12,22.34-36.83,11.37l-75.74-65.39h0Z"/>
    <path class="st9" d="M327.16,1233.58l137.55-523.55c4.54-17.28,26.33-22.81,38.56-9.79l68.17,72.59c5.36,5.71,7.41,13.77,5.42,21.34l-137.18,522.15c-4.51,17.16-26.06,22.77-38.36,9.99l-68.54-71.19c-5.5-5.71-7.63-13.88-5.61-21.54h-.01Z"/>
    <path class="st9" d="M892.99,118.68l96.62-25.9c7.8-2.09,16.13.11,21.87,5.79l391,386.7c12.51,12.37,6.83,33.65-10.18,38.14l-99.86,26.36c-7.82,2.06-16.14-.18-21.86-5.89l-387.75-387.17c-12.39-12.37-6.73-33.51,10.18-38.04h-.02,0Z"/>
    <path class="st9" d="M546.71,649.27c-11.78-12.54-5.9-33.11,10.73-37.53l128.3-34.13,182.35-46.31c8.02-2.04,16.52.45,22.18,6.48l66.42,70.82c11.77,12.55,5.87,33.12-10.76,37.52l-308.88,81.9c-8.08,2.14-16.68-.32-22.4-6.41l-67.95-72.35h.01Z"/>
    <path class="st9" d="M902.97,1275.52l-136.72-130.39c-5.93-5.65-8.36-14.06-6.35-22l24.63-97.78c4.31-17.1,25.61-23,38.1-10.54l228.41,227.76c5.73,5.71,7.99,14.05,5.94,21.87l-24.38,92.8c-4.47,17-25.7,22.72-38.1,10.26l-91.52-91.97h-.01Z"/>
    <path class="st9" d="M658.37,791.25l301.26-79.89c16.94-4.49,32.37,11.06,27.76,27.96l-25.6,93.71c-2.21,8.1-8.71,14.32-16.89,16.18l-176.11,40c-.28.07-.56.14-.84.21h-.05c-.54.15-1.06.3-1.56.46-.71.22-1.37.46-2.01.71-.46.18-.92.37-1.39.57-.42.18-.82.37-1.22.56-.46.22-.91.45-1.34.69-.72.39-1.42.81-2.11,1.26-.43.28-.78.52-1.03.71-.34.24-.81.58-1.35,1.01l-.76.37-2.39,2.41c-.25.26-.5.52-.74.79-.47.51-.84.94-1.09,1.24l-.38.45s-.2.26-.26.33c-.53.68-1.04,1.37-1.5,2.05,0,0-.29.43-.39.6-.38.59-.76,1.21-1.11,1.85-.24.42-.46.85-.67,1.27-.36.71-.63,1.33-.84,1.81l-.09.21c-.09.22-.18.44-.26.66l-.05.12-.13.35c-.16.44-.43,1.17-.7,2.08l-.1.33c-.1.32-.23.79-.37,1.37l-56.64,224.84c-2.92,11.59.63,23.93,9.28,32.2l88.93,84.82c12.74,12.15,7.42,33.56-9.53,38.33l-244.32,68.79c-16.92,4.76-32.61-10.66-28.15-27.66l138.61-527.58c2.08-7.91,8.25-14.1,16.16-16.2l-.03.03h0Z"/>
  </g>
  <rect class="st0" width="2000" height="2000"/>
  <rect class="st8" x="2424.57" width="2000" height="2000"/>
  <path class="st7" d="M440.49,1353.59l86.1,90.33c8.15,8.55,20.36,11.88,31.72,8.66l217.24-69.5c23.44-6.64,31.03-36.08,13.73-53.23l-42.68-50.08c-7.97-7.9-11.19-19.41-8.48-30.3l45.13-181.16c2.82-11.31,11.59-20.18,22.87-23.11l138.89-36.13c11.54-3,20.44-12.2,23.05-23.84l28.99-135.04c2.28-10.17-.57-20.82-7.62-28.49l-77.65-68.73c-7.88-8.58-19.81-12.17-31.12-9.36l-299.23,74.38c-11.32,2.81-20.19,11.59-23.13,22.88l-125.57,482.75c-2.77,10.66.16,22,7.77,29.97h0Z"/>
  <g class="st4">
    <path class="st1" d="M2869.05,1431.46l86.1,90.33c8.15,8.55,20.36,11.88,31.72,8.66l229.56-65.07c23.44-6.64,31.03-36.08,13.73-53.23l-55-54.51c-7.97-7.9-11.19-19.41-8.48-30.3l45.13-181.16c2.82-11.31,11.59-20.18,22.87-23.11l138.89-36.13c11.54-3,20.44-12.2,23.05-23.84l27.17-121.21c2.28-10.17-.57-20.82-7.62-28.49l-75.83-82.56c-7.88-8.58-19.81-12.17-31.12-9.36l-299.23,74.38c-11.32,2.81-20.19,11.59-23.13,22.88l-125.57,482.75c-2.77,10.66.16,22,7.77,29.97h0Z"/>
    <path class="st0" d="M3985.19,1376.88l31.98-120.62c3.03-11.42-.52-23.57-9.2-31.57l-175.5-161.65c-17.92-16.51-46.98-7.58-52.55,16.13l-17.71,75.38c-2.57,10.92-10.69,19.69-21.39,23.07l-178.02,56.26c-11.12,3.51-23.26.67-31.66-7.41l-103.42-99.5c-8.59-8.27-21.09-11.04-32.37-7.18l-117.53,40.22c-9.86,3.37-17.45,11.37-20.3,21.39l-30.72,107.81c-3.19,11.2-.02,23.25,8.29,31.42l219.87,216.17c8.31,8.18,20.44,11.15,31.6,7.75l477.16-145.39c10.54-3.21,18.67-11.64,21.48-22.29h-.01Z"/>
    <path class="st1" d="M3980.55,1432.82l37.85-111.33c3.66-10.77,1.3-22.67-6.2-31.23l-156.42-178.45c-16.15-18.42-46.18-12.45-54.07,10.74l-23.34,68.64c-3.57,10.52-12.38,18.41-23.22,20.82l-187.37,41.66c-10.54,2.35-21.54-.82-29.23-8.39l-115.36-113.59c-8.01-7.89-19.59-10.96-30.46-8.1l-109.34,28.89c-10.43,2.75-18.77,10.62-22.12,20.87l-35.95,109.87c-3.52,10.76-1.06,22.59,6.48,31.05l204.17,229.46c7.54,8.48,19.02,12.29,30.13,10.03l490.7-100.01c11.08-2.26,20.14-10.23,23.78-20.94h-.03,0Z"/>
    <path class="st0" d="M3408.46,455.3l-118.8,30.78c-11.14,2.89-19.86,11.57-22.79,22.7l-61.41,233.12c-6.17,23.44,15.07,44.9,38.56,38.97l80.44-20.29c11.21-2.83,23.06.64,30.98,9.06l124.95,132.94c7.62,8.11,10.45,19.6,7.47,30.32l-40.6,146.17c-3.34,12.04.67,24.92,10.25,32.94l92.44,77.29c8.09,6.77,19.01,9.08,29.15,6.19l124-35.4c10.87-3.1,19.28-11.74,22.09-22.69l75.28-293.15c2.81-10.95-.39-22.56-8.42-30.52l-353.2-350.24c-7.97-7.91-19.52-11.03-30.4-8.21v.02h.01Z"/>
    <path class="st1" d="M3429.65,445.83l-114.77,25.55c-11.1,2.48-20.04,10.68-23.45,21.54l-71.1,226.4c-7.34,23.38,13.37,45.93,37.28,40.6l70.76-15.75c10.84-2.42,22.17,1,29.86,9.01l133.01,138.4c7.48,7.78,10.5,18.82,8.03,29.33l-37.04,157.6c-2.57,10.95.82,22.44,8.92,30.23l81.53,78.38c7.78,7.48,18.83,10.51,29.33,8.05l112.55-26.42c11.02-2.59,19.85-10.84,23.16-21.68l89.85-293.71c3.32-10.84.61-22.64-7.1-30.95l-340.57-367.16c-7.7-8.29-19.21-11.88-30.25-9.43h0Z"/>
  </g>
  <path class="st7" d="M440.49,1353.59l86.1,90.33c8.15,8.55,20.36,11.88,31.72,8.66l217.24-69.5c23.44-6.64,31.03-36.08,13.73-53.23l-42.68-50.08c-7.97-7.9-11.19-19.41-8.48-30.3l45.13-181.16c2.82-11.31,11.59-20.18,22.87-23.11l138.89-36.13c11.54-3,20.44-12.2,23.05-23.84l28.99-135.04c2.28-10.17-.57-20.82-7.62-28.49l-77.65-68.73c-7.88-8.58-19.81-12.17-31.12-9.36l-299.23,74.38c-11.32,2.81-20.19,11.59-23.13,22.88l-125.57,482.75c-2.77,10.66.16,22,7.77,29.97h0Z"/>
  <path class="st3" d="M967.61,366.25l-119.61,35.58c-11.32,3.37-19.84,12.73-22.14,24.31l-36.94,225.08c-4.75,23.89,18.01,44.05,41.16,36.44l64.01-15.23c10.66-3.5,22.38-1.13,30.84,6.23l140.79,122.61c8.79,7.66,12.7,19.5,10.18,30.88l-31.01,140.12c-2.58,11.64,1.57,23.75,10.74,31.37l107.07,87.25c8.02,6.66,18.8,8.96,28.84,6.18l96.53-37.87c11.23-3.11,19.85-12.1,22.49-23.45l69.9-300.31c2.65-11.36-1.14-23.25-9.85-31.01l-372.77-331.45c-8.23-7.32-19.66-9.87-30.22-6.72h0Z"/>
  <path class="st2" d="M1575.44,1325.88l37.66-118.97c3.56-11.26.6-23.56-7.7-31.97l-165.58-156.87c-17.11-17.34-46.57-9.8-53.26,13.62l-23.31,61.53c-3.08,10.79-11.62,19.16-22.46,22.03l-180.49,47.75c-11.27,2.98-23.27-.43-31.27-8.9l-98.58-104.29c-8.19-8.67-20.54-12.03-32-8.71l-132.29,39.67c-10.01,2.9-17.97,10.53-21.29,20.41l-22.81,101.16c-3.72,11.04-1.12,23.22,6.79,31.78l209.36,226.36c7.92,8.57,19.88,12.11,31.19,9.24l483.52-122.58c10.68-2.71,19.2-10.74,22.52-21.25h0Z"/>
  <polygon class="st6" points="951 951.01 978.38 951.06 992.45 975.13 1017.28 975.13 1031.14 951.52 1004.55 906.31 924.77 906.31 910.91 929.92 937.5 975.13 951 951.01"/>
  <polygon class="st6" points="1031.08 951.57 1017.17 975.14 989.41 975.08 977.25 996.72 991.05 1020.37 1042.94 1019.61 1082.9 951.59 1069.57 927.68 1017.12 927.71 1031.08 951.57"/>
  <polygon class="st6" points="991.05 1020.37 977.25 996.72 990.91 972.41 978.35 950.99 950.98 950.97 925.42 996.77 965.75 1065.6 993.13 1065.62 1018.69 1019.82 991.05 1020.37"/>
  <g>
    <path class="st12" d="M1042.39,1466.87l-215.35-206.36c-11.01-10.55-15.48-26.2-11.7-40.97l29.15-114.08c3.71-14.52,14.84-25.99,29.24-30.14l94.76-27.31c14.69-4.23,30.51-.2,41.39,10.54l109.78,108.4c10.64,10.51,26.04,14.61,40.49,10.78l179.99-47.6c14.86-3.93,26.42-15.62,30.17-30.53l17.03-67.62c7.98-31.68,47.36-42.71,70.63-19.78l154.71,152.4c10.92,10.76,15.16,26.58,11.08,41.36l-31.32,113.34c-3.99,14.45-15.34,25.7-29.82,29.57l-480.09,128.32c-14.27,3.81-29.49-.1-40.15-10.31Z"/>
    <path class="st10" d="M838.94,660.09l67.43-19.64c14.72-4.29,30.6-.27,41.51,10.5l132.07,130.41c10.67,10.53,14.95,25.92,11.27,40.45l-38.44,151.59c-3.68,14.51.59,29.88,11.23,40.42l70.42,69.71c10.65,10.54,26.08,14.65,40.56,10.81l113.58-30.14c14.83-3.93,26.36-15.59,30.12-30.46l74.01-292.09c3.68-14.54-.61-29.94-11.29-40.47l-357.95-352.98c-10.67-10.52-26.12-14.61-40.6-10.73l-113.58,30.42c-14.81,3.96-26.3,15.64-30.05,30.5l-53.08,210.79c-7.97,31.66,21.44,60.02,52.79,50.89Z"/>
    <path class="st11" d="M730.14,1230.04l45.99-179.96c3.71-14.52,14.84-25.99,29.24-30.14l149.46-43.07c14.41-4.15,25.54-15.64,29.25-30.17l24.61-96.58c3.7-14.52-.57-29.92-11.22-40.47l-83.57-82.71c-10.9-10.79-26.78-14.82-41.51-10.55l-289.22,83.98c-14.39,4.18-25.49,15.67-29.18,30.19l-123.57,487.31c-3.68,14.53.6,29.92,11.27,40.46l83.67,82.62c10.91,10.77,26.79,14.79,41.5,10.5l208.43-60.7c31.24-9.1,40.91-48.61,17.4-71.1l-50.83-48.63c-11.02-10.55-15.51-26.22-11.73-41Z"/>
  </g>
</svg>