<?xml version="1.0" encoding="UTF-8"?>
<svg id="Layer_1" xmlns="http://www.w3.org/2000/svg" version="1.1" xmlns:xlink="http://www.w3.org/1999/xlink" viewBox="0 0 2000 2000">
  <!-- Generator: Adobe Illustrator 30.3.0, SVG Export Plug-In . SVG Version: 2.1.3 Build 182)  -->
  <defs>
    <style>
      .st0 {
        fill: url(#linear-gradient2);
      }

      .st1 {
        stroke: url(#linear-gradient5);
      }

      .st1, .st2, .st3 {
        fill: none;
        stroke-miterlimit: 10;
        stroke-width: 5px;
      }

      .st2 {
        stroke: url(#linear-gradient3);
      }

      .st4 {
        fill: url(#linear-gradient1);
      }

      .st5 {
        opacity: .3;
      }

      .st6 {
        fill: url(#linear-gradient);
      }

      .st3 {
        stroke: url(#linear-gradient4);
      }
    </style>
    <linearGradient id="linear-gradient" x1="1207.11" y1="1415.91" x2="1240.75" y2="932.63" gradientTransform="translate(18.29 -16.03) rotate(.95)" gradientUnits="userSpaceOnUse">
      <stop offset="0" stop-color="#edc314"/>
      <stop offset="1" stop-color="#f28b05"/>
    </linearGradient>
    <linearGradient id="linear-gradient1" x1="1007.78" y1="795.68" x2="1305.53" y2="422.61" gradientTransform="translate(18.29 -16.03) rotate(.95)" gradientUnits="userSpaceOnUse">
      <stop offset="0" stop-color="#edc314"/>
      <stop offset=".73" stop-color="#f28b05"/>
    </linearGradient>
    <linearGradient id="linear-gradient2" x1="719.41" y1="1460.07" x2="719.41" y2="716.28" gradientTransform="translate(18.29 -16.03) rotate(.95)" gradientUnits="userSpaceOnUse">
      <stop offset="0" stop-color="#edc314"/>
      <stop offset="1" stop-color="#f28b05"/>
    </linearGradient>
    <linearGradient id="linear-gradient3" x1="814.03" y1="1239.32" x2="1625.28" y2="1239.32" gradientUnits="userSpaceOnUse">
      <stop offset="0" stop-color="#ad56c8"/>
      <stop offset="1" stop-color="#fff"/>
    </linearGradient>
    <linearGradient id="linear-gradient4" x1="784.85" y1="715.89" x2="1393.98" y2="715.89" xlink:href="#linear-gradient3"/>
    <linearGradient id="linear-gradient5" x1="429.14" y1="1083.93" x2="1009.99" y2="1083.93" xlink:href="#linear-gradient3"/>
  </defs>
  <g>
    <path class="st6" d="M1042.39,1466.87l-215.35-206.36c-11.01-10.55-15.48-26.2-11.7-40.97l29.15-114.08c3.71-14.52,14.84-25.99,29.24-30.14l94.76-27.31c14.69-4.23,30.51-.2,41.39,10.54l109.78,108.4c10.64,10.51,26.04,14.61,40.49,10.78l179.99-47.6c14.86-3.93,26.42-15.62,30.17-30.53l17.03-67.62c7.98-31.68,47.36-42.71,70.63-19.78l154.71,152.4c10.92,10.76,15.16,26.58,11.08,41.36l-31.32,113.34c-3.99,14.45-15.34,25.7-29.82,29.57l-480.09,128.32c-14.27,3.81-29.49-.1-40.15-10.31h0Z"/>
    <path class="st4" d="M838.94,660.09l67.43-19.64c14.72-4.29,30.6-.27,41.51,10.5l132.07,130.41c10.67,10.53,14.95,25.92,11.27,40.45l-38.44,151.59c-3.68,14.51.59,29.88,11.23,40.42l70.42,69.71c10.65,10.54,26.08,14.65,40.56,10.81l113.58-30.14c14.83-3.93,26.36-15.59,30.12-30.46l74.01-292.09c3.68-14.54-.61-29.94-11.29-40.47l-357.95-352.98c-10.67-10.52-26.12-14.61-40.6-10.73l-113.58,30.42c-14.81,3.96-26.3,15.64-30.05,30.5l-53.08,210.79c-7.97,31.66,21.44,60.02,52.79,50.89v.02h0Z"/>
    <path class="st0" d="M730.14,1230.04l45.99-179.96c3.71-14.52,14.84-25.99,29.24-30.14l149.46-43.07c14.41-4.15,25.54-15.64,29.25-30.17l24.61-96.58c3.7-14.52-.57-29.92-11.22-40.47l-83.57-82.71c-10.9-10.79-26.78-14.82-41.51-10.55l-289.22,83.98c-14.39,4.18-25.49,15.67-29.18,30.19l-123.57,487.31c-3.68,14.53.6,29.92,11.27,40.46l83.67,82.62c10.91,10.77,26.79,14.79,41.5,10.5l208.43-60.7c31.24-9.1,40.91-48.61,17.4-71.1l-50.83-48.63c-11.02-10.55-15.51-26.22-11.73-41v.02h0Z"/>
  </g>
  <g class="st5">
    <path class="st2" d="M1071.62,1476.12c-10.02,0-19.53-3.71-26.89-10.46l-.61-.59-215.35-206.36c-10.34-9.91-14.56-24.68-11.01-38.54l29.15-114.08c3.48-13.6,14.02-24.47,27.51-28.36l94.76-27.31c3.58-1.03,7.28-1.55,11-1.55,10.52,0,20.45,4.07,27.94,11.47l109.78,108.4c8.43,8.33,19.59,12.91,31.44,12.91,3.86,0,7.71-.5,11.45-1.49l179.99-47.6c15.74-4.16,27.99-16.55,31.96-32.34l17.03-67.62c4.46-17.71,20.38-30.07,38.73-30.07,10.38,0,20.22,4.07,27.72,11.46l154.71,152.4c10.26,10.11,14.26,25.03,10.42,38.91l-31.32,113.34c-3.74,13.53-14.49,24.19-28.06,27.82l-480.09,128.32c-3.35.89-6.8,1.35-10.26,1.35Z"/>
    <path class="st3" d="M1164.16,1093.25c-10.54,0-20.48-4.08-27.97-11.5l-70.42-69.71c-9.96-9.87-14.01-24.44-10.57-38.03l38.44-151.59c3.88-15.33-.69-31.75-11.94-42.84l-132.07-130.41c-8.43-8.33-19.6-12.91-31.45-12.91-4.23,0-8.45.6-12.52,1.79l-64.26,18.72-3.17.9c-3.73,1.09-7.53,1.64-11.3,1.64-12.03,0-23.71-5.78-31.25-15.45-7.54-9.67-10.14-22.09-7.12-34.06l53.08-210.79c3.53-13.98,14.36-24.98,28.27-28.7l113.58-30.42c3.35-.9,6.81-1.35,10.28-1.35,10.51,0,20.43,4.07,27.92,11.45l357.95,352.98c10,9.86,14.07,24.45,10.62,38.08l-74.01,292.09c-3.54,13.98-14.39,24.96-28.34,28.66l-113.58,30.14c-3.33.88-6.76,1.33-10.19,1.33Z"/>
    <path class="st1" d="M555.05,1450.64c-10.52,0-20.44-4.07-27.93-11.47l-83.67-82.62c-9.99-9.87-14.05-24.45-10.6-38.07l123.57-487.31c3.46-13.61,13.98-24.49,27.45-28.4l289.22-83.98c3.61-1.05,7.33-1.58,11.08-1.58,10.55,0,20.48,4.08,27.97,11.5l83.57,82.71c9.98,9.88,14.02,24.47,10.56,38.08l-24.61,96.58c-3.48,13.62-14.02,24.5-27.52,28.38l-149.46,43.07c-15.19,4.38-27.06,16.61-30.97,31.92l-45.98,179.94h-.02c-4,15.62.77,32.26,12.42,43.42l50.83,48.63c10.39,9.93,14.55,24.2,11.13,38.17-3.42,13.97-13.7,24.71-27.5,28.73l-208.43,60.7c-3.62,1.05-7.35,1.59-11.11,1.59Z"/>
  </g>
</svg>